<mxfile host="app.diagrams.net" modified="2023-02-21T12:15:21.747Z" agent="5.0 (Windows NT 10.0; Win64; x64) AppleWebKit/537.36 (KHTML, like Gecko) Chrome/110.0.0.0 Safari/537.36 Edg/110.0.1587.50" etag="VFAwDT3bFpvKIsaCvpfJ" version="20.8.21" type="github">
  <diagram name="第 1 页" id="DsvAW_eQVJmoL1iawGaw">
    <mxGraphModel dx="724" dy="379" grid="1" gridSize="10" guides="1" tooltips="1" connect="1" arrows="1" fold="1" page="1" pageScale="1" pageWidth="827" pageHeight="1169" math="0" shadow="0">
      <root>
        <mxCell id="0" />
        <mxCell id="1" parent="0" />
        <mxCell id="M4eSTphIaqMEPedgoOWU-1" value="微信小程序选课系统" style="rounded=0;whiteSpace=wrap;html=1;" vertex="1" parent="1">
          <mxGeometry x="350" y="260" width="170" height="30" as="geometry" />
        </mxCell>
        <mxCell id="M4eSTphIaqMEPedgoOWU-2" value="" style="endArrow=classic;html=1;rounded=0;edgeStyle=orthogonalEdgeStyle;" edge="1" parent="1">
          <mxGeometry width="50" height="50" relative="1" as="geometry">
            <mxPoint x="430" y="290" as="sourcePoint" />
            <mxPoint x="350" y="400" as="targetPoint" />
            <Array as="points">
              <mxPoint x="440" y="290" />
              <mxPoint x="440" y="340" />
              <mxPoint x="350" y="340" />
            </Array>
          </mxGeometry>
        </mxCell>
        <mxCell id="M4eSTphIaqMEPedgoOWU-3" value="" style="endArrow=classic;html=1;rounded=0;edgeStyle=orthogonalEdgeStyle;" edge="1" parent="1">
          <mxGeometry width="50" height="50" relative="1" as="geometry">
            <mxPoint x="440" y="340" as="sourcePoint" />
            <mxPoint x="520" y="400" as="targetPoint" />
            <Array as="points">
              <mxPoint x="520" y="340" />
            </Array>
          </mxGeometry>
        </mxCell>
        <mxCell id="M4eSTphIaqMEPedgoOWU-4" value="管理员模块" style="rounded=0;whiteSpace=wrap;html=1;" vertex="1" parent="1">
          <mxGeometry x="260" y="400" width="160" height="20" as="geometry" />
        </mxCell>
        <mxCell id="M4eSTphIaqMEPedgoOWU-5" value="用户模块" style="rounded=0;whiteSpace=wrap;html=1;" vertex="1" parent="1">
          <mxGeometry x="460" y="400" width="120" height="20" as="geometry" />
        </mxCell>
        <mxCell id="M4eSTphIaqMEPedgoOWU-6" value="个人中心" style="rounded=0;whiteSpace=wrap;html=1;" vertex="1" parent="1">
          <mxGeometry x="460" y="440" width="20" height="100" as="geometry" />
        </mxCell>
        <mxCell id="M4eSTphIaqMEPedgoOWU-7" value="选课信息查看" style="rounded=0;whiteSpace=wrap;html=1;" vertex="1" parent="1">
          <mxGeometry x="530" y="440" width="20" height="100" as="geometry" />
        </mxCell>
        <mxCell id="M4eSTphIaqMEPedgoOWU-8" value="选课操作" style="rounded=0;whiteSpace=wrap;html=1;" vertex="1" parent="1">
          <mxGeometry x="490" y="440" width="20" height="100" as="geometry" />
        </mxCell>
        <mxCell id="M4eSTphIaqMEPedgoOWU-9" value="已修课程信息" style="rounded=0;whiteSpace=wrap;html=1;" vertex="1" parent="1">
          <mxGeometry x="560" y="440" width="20" height="100" as="geometry" />
        </mxCell>
        <mxCell id="M4eSTphIaqMEPedgoOWU-12" value="" style="endArrow=classic;html=1;rounded=0;entryX=0.5;entryY=0;entryDx=0;entryDy=0;" edge="1" parent="1" target="M4eSTphIaqMEPedgoOWU-6">
          <mxGeometry width="50" height="50" relative="1" as="geometry">
            <mxPoint x="470" y="420" as="sourcePoint" />
            <mxPoint x="470" y="390" as="targetPoint" />
            <Array as="points">
              <mxPoint x="470" y="430" />
            </Array>
          </mxGeometry>
        </mxCell>
        <mxCell id="M4eSTphIaqMEPedgoOWU-13" value="" style="endArrow=classic;html=1;rounded=0;entryX=0.5;entryY=0;entryDx=0;entryDy=0;" edge="1" parent="1" target="M4eSTphIaqMEPedgoOWU-8">
          <mxGeometry width="50" height="50" relative="1" as="geometry">
            <mxPoint x="500" y="420" as="sourcePoint" />
            <mxPoint x="510" y="400" as="targetPoint" />
          </mxGeometry>
        </mxCell>
        <mxCell id="M4eSTphIaqMEPedgoOWU-14" value="" style="endArrow=classic;html=1;rounded=0;exitX=0.669;exitY=1.009;exitDx=0;exitDy=0;exitPerimeter=0;" edge="1" parent="1" source="M4eSTphIaqMEPedgoOWU-5">
          <mxGeometry width="50" height="50" relative="1" as="geometry">
            <mxPoint x="460" y="450" as="sourcePoint" />
            <mxPoint x="540" y="440" as="targetPoint" />
            <Array as="points" />
          </mxGeometry>
        </mxCell>
        <mxCell id="M4eSTphIaqMEPedgoOWU-18" value="" style="endArrow=classic;html=1;rounded=0;entryX=0.5;entryY=0;entryDx=0;entryDy=0;exitX=0.917;exitY=1;exitDx=0;exitDy=0;exitPerimeter=0;" edge="1" parent="1" source="M4eSTphIaqMEPedgoOWU-5" target="M4eSTphIaqMEPedgoOWU-9">
          <mxGeometry width="50" height="50" relative="1" as="geometry">
            <mxPoint x="460" y="470" as="sourcePoint" />
            <mxPoint x="510" y="420" as="targetPoint" />
          </mxGeometry>
        </mxCell>
        <mxCell id="M4eSTphIaqMEPedgoOWU-19" value="系统管理" style="rounded=0;whiteSpace=wrap;html=1;" vertex="1" parent="1">
          <mxGeometry x="270" y="440" width="17" height="100" as="geometry" />
        </mxCell>
        <mxCell id="M4eSTphIaqMEPedgoOWU-20" value="课程信息管理" style="rounded=0;whiteSpace=wrap;html=1;" vertex="1" parent="1">
          <mxGeometry x="360" y="440" width="20" height="100" as="geometry" />
        </mxCell>
        <mxCell id="M4eSTphIaqMEPedgoOWU-21" value="选课学生管理" style="rounded=0;whiteSpace=wrap;html=1;" vertex="1" parent="1">
          <mxGeometry x="394" y="440" width="20" height="100" as="geometry" />
        </mxCell>
        <mxCell id="M4eSTphIaqMEPedgoOWU-23" value="用户账号管理" style="rounded=0;whiteSpace=wrap;html=1;" vertex="1" parent="1">
          <mxGeometry x="330" y="440" width="20" height="100" as="geometry" />
        </mxCell>
        <mxCell id="M4eSTphIaqMEPedgoOWU-24" value="通知管理" style="rounded=0;whiteSpace=wrap;html=1;" vertex="1" parent="1">
          <mxGeometry x="300" y="440" width="20" height="100" as="geometry" />
        </mxCell>
        <mxCell id="M4eSTphIaqMEPedgoOWU-26" value="" style="endArrow=classic;html=1;rounded=0;entryX=0.5;entryY=0;entryDx=0;entryDy=0;exitX=0.115;exitY=0.998;exitDx=0;exitDy=0;exitPerimeter=0;" edge="1" parent="1" source="M4eSTphIaqMEPedgoOWU-4" target="M4eSTphIaqMEPedgoOWU-19">
          <mxGeometry width="50" height="50" relative="1" as="geometry">
            <mxPoint x="330" y="500" as="sourcePoint" />
            <mxPoint x="380" y="450" as="targetPoint" />
          </mxGeometry>
        </mxCell>
        <mxCell id="M4eSTphIaqMEPedgoOWU-27" value="" style="endArrow=classic;html=1;rounded=0;entryX=0.5;entryY=0;entryDx=0;entryDy=0;exitX=0.901;exitY=1.019;exitDx=0;exitDy=0;exitPerimeter=0;" edge="1" parent="1" source="M4eSTphIaqMEPedgoOWU-4" target="M4eSTphIaqMEPedgoOWU-21">
          <mxGeometry width="50" height="50" relative="1" as="geometry">
            <mxPoint x="330" y="500" as="sourcePoint" />
            <mxPoint x="380" y="450" as="targetPoint" />
          </mxGeometry>
        </mxCell>
        <mxCell id="M4eSTphIaqMEPedgoOWU-28" value="" style="endArrow=classic;html=1;rounded=0;entryX=0.5;entryY=0;entryDx=0;entryDy=0;exitX=0.685;exitY=1.041;exitDx=0;exitDy=0;exitPerimeter=0;" edge="1" parent="1" source="M4eSTphIaqMEPedgoOWU-4" target="M4eSTphIaqMEPedgoOWU-20">
          <mxGeometry width="50" height="50" relative="1" as="geometry">
            <mxPoint x="330" y="500" as="sourcePoint" />
            <mxPoint x="380" y="450" as="targetPoint" />
          </mxGeometry>
        </mxCell>
        <mxCell id="M4eSTphIaqMEPedgoOWU-29" value="" style="endArrow=classic;html=1;rounded=0;entryX=0.5;entryY=0;entryDx=0;entryDy=0;exitX=0.5;exitY=1;exitDx=0;exitDy=0;" edge="1" parent="1" source="M4eSTphIaqMEPedgoOWU-4" target="M4eSTphIaqMEPedgoOWU-23">
          <mxGeometry width="50" height="50" relative="1" as="geometry">
            <mxPoint x="330" y="500" as="sourcePoint" />
            <mxPoint x="380" y="450" as="targetPoint" />
          </mxGeometry>
        </mxCell>
        <mxCell id="M4eSTphIaqMEPedgoOWU-30" value="" style="endArrow=classic;html=1;rounded=0;entryX=0.5;entryY=0;entryDx=0;entryDy=0;exitX=0.312;exitY=0.998;exitDx=0;exitDy=0;exitPerimeter=0;" edge="1" parent="1" source="M4eSTphIaqMEPedgoOWU-4" target="M4eSTphIaqMEPedgoOWU-24">
          <mxGeometry width="50" height="50" relative="1" as="geometry">
            <mxPoint x="330" y="500" as="sourcePoint" />
            <mxPoint x="380" y="450" as="targetPoint" />
          </mxGeometry>
        </mxCell>
      </root>
    </mxGraphModel>
  </diagram>
</mxfile>
